<svg width="18" height="11" viewBox="0 0 18 11" fill="none" xmlns="http://www.w3.org/2000/svg">
<path d="M15.6 6.85714H11.2666C10.296 6.85714 9.39465 7.13905 8.66665 7.61905V3.04762C9.41198 3.54286 10.3133 3.80952 11.2666 3.80952H15.6V6.85714ZM17.3333 9.14286V1.52381C17.3333 1.10476 16.9433 0.761905 16.4666 0.761905C15.99 0.761905 15.6 1.10476 15.6 1.52381V2.28571H11.2666C9.82798 2.28571 8.66665 1.26476 8.66665 0L6.93331 0V4.54857H0.866646L-2.0504e-05 5.31048L0.866646 6.07238H6.93331V10.6667H8.66665C8.66665 9.4019 9.82798 8.38095 11.2666 8.38095H15.6V9.14286C15.6 9.5619 15.99 9.90476 16.4666 9.90476C16.9433 9.90476 17.3333 9.5619 17.3333 9.14286Z" fill="white"/>
</svg>
