<svg width="12" height="14" viewBox="0 0 12 14" fill="none" xmlns="http://www.w3.org/2000/svg">
<path d="M1.91667 12.8333L10.0833 12.8333L10.0833 4.66667L1.91667 4.66667L1.91667 12.8333ZM11.25 3.5L11.25 14L0.75 14L0.75 3.5L11.25 3.5ZM3.08333 10.8442L3.90583 11.6667L6 9.5725L8.09417 11.6667L8.91667 10.8442L6.8225 8.75L8.91667 6.65583L8.09417 5.83333L6 7.9275L3.90583 5.83333L3.08333 6.65583L5.1775 8.75L3.08333 10.8442Z" fill="white"/>
<path d="M11.25 1.75L0.75 1.75L0.75 2.91667L11.25 2.91667L11.25 1.75Z" fill="white"/>
<path d="M10.6667 0L1.33335 0L1.33335 1.16667L10.6667 1.16667L10.6667 0Z" fill="white"/>
</svg>
