<svg width="16" height="16" viewBox="0 0 16 16" fill="none" xmlns="http://www.w3.org/2000/svg">
<g clip-path="url(#clip0_2376_1193)">
<path d="M14.6666 4.65333V10.6667C14.6666 11.4 14.0666 12 13.3333 12H3.99992L1.33325 14.6667V2.66667C1.33325 1.93333 1.93325 1.33333 2.66659 1.33333H9.39992C9.35992 1.54667 9.33325 1.77333 9.33325 2C9.33325 2.22667 9.35992 2.45333 9.39992 2.66667H2.66659V10.6667H13.3333V5.26667C13.8266 5.16667 14.2799 4.94667 14.6666 4.65333ZM10.6666 2C10.6666 3.10667 11.5599 4 12.6666 4C13.7733 4 14.6666 3.10667 14.6666 2C14.6666 0.893333 13.7733 0 12.6666 0C11.5599 0 10.6666 0.893333 10.6666 2Z" fill="white"/>
</g>
<defs>
<clipPath id="clip0_2376_1193">
<rect width="16" height="16" fill="white"/>
</clipPath>
</defs>
</svg>
