<svg width="12" height="12" viewBox="0 0 12 12" fill="none" xmlns="http://www.w3.org/2000/svg">
<path d="M7.27333 8.39333L6.33333 9.33333L3 6L6.33333 2.66667L7.27333 3.60667L5.55333 5.33333L12 5.33333L12 6.66667L5.55333 6.66667L7.27333 8.39333ZM1.33333 1.86502e-06L10.6667 2.33127e-07C11.4067 1.03742e-07 12 0.6 12 1.33333L12 4L10.6667 4L10.6667 1.33333L1.33333 1.33334L1.33333 10.6667L10.6667 10.6667L10.6667 8L12 8L12 10.6667C12 11.4 11.4067 12 10.6667 12L1.33334 12C0.600002 12 1.99324e-06 11.4 1.86502e-06 10.6667L2.33127e-07 1.33334C1.04907e-07 0.600002 0.599999 1.99324e-06 1.33333 1.86502e-06Z" fill="white"/>
</svg>
