<svg width="12" height="18" viewBox="0 0 12 18" fill="none" xmlns="http://www.w3.org/2000/svg">
<path d="M7.52383 1.73333V6.06667C7.52383 7.03733 7.80573 7.93867 8.28573 8.66667H3.71431C4.20954 7.92133 4.47621 7.02 4.47621 6.06667V1.73333L7.52383 1.73333ZM9.80954 0L2.1905 0C1.77145 0 1.42859 0.39 1.42859 0.866667C1.42859 1.34333 1.77145 1.73333 2.1905 1.73333L2.9524 1.73333L2.9524 6.06667C2.9524 7.50533 1.93145 8.66667 0.666687 8.66667L0.666687 10.4H5.21526V16.4667L5.97716 17.3333L6.73907 16.4667V10.4H11.3334V8.66667C10.0686 8.66667 9.04764 7.50533 9.04764 6.06667V1.73333H9.80954C10.2286 1.73333 10.5714 1.34333 10.5714 0.866667C10.5714 0.39 10.2286 0 9.80954 0Z" fill="white"/>
</svg>
