<?xml version="1.0" encoding="UTF-8"?>
<svg width="127.01mm" height="126.98mm" version="1.1" viewBox="0 0 127.01 126.98" xmlns="http://www.w3.org/2000/svg">
 <g transform="translate(-27.498 9.167)">
  <path d="m37.199 117.41c-4.6675-1.1298-8.533-5.1788-9.4227-9.8701-0.35001-1.8456-0.35001-11.441 0-13.287 0.65462-3.4518 3.2714-7.0431 6.3134-8.6644 3.0201-1.6097 3.1266-1.6172 22.948-1.6215 11.169-2e-3 18.563 0.0988 19.446 0.26615 3.6822 0.69832 7.2023 3.3747 8.8453 6.7254 1.2501 2.5494 1.4446 3.8871 1.4446 9.9379 0 6.0508-0.19444 7.3885-1.4446 9.9379-1.643 3.3506-5.163 6.027-8.8453 6.7254-0.88941 0.16867-8.2396 0.26179-19.578 0.24802-14.718-0.0179-18.448-0.0931-19.706-0.39771zm67.733 0c-4.6675-1.1298-8.533-5.1788-9.4227-9.8701-0.37013-1.9517-0.37013-62.135 0-64.087 0.65462-3.4518 3.2714-7.0431 6.3134-8.6644 3.0201-1.6097 3.1266-1.6172 22.948-1.6215 11.169-2e-3 18.563 0.0988 19.446 0.26615 4.8681 0.92322 9.1285 5.1807 10.026 10.019 0.35952 1.9389 0.35952 62.15 0 64.089-0.89708 4.838-5.1575 9.0954-10.026 10.019-0.88941 0.16867-8.2396 0.26179-19.578 0.24802-14.718-0.0179-18.448-0.0931-19.706-0.39771zm-67.733-42.333c-4.6675-1.1298-8.533-5.1788-9.4227-9.8701-0.37013-1.9517-0.37013-62.135 0-64.087 0.65462-3.4518 3.2714-7.0431 6.3134-8.6644 3.0201-1.6097 3.1266-1.6172 22.948-1.6215 11.169-0.0024 18.563 0.09878 19.446 0.26615 4.8681 0.92322 9.1285 5.1807 10.026 10.019 0.35951 1.9389 0.35951 62.15 0 64.089-0.89709 4.838-5.1575 9.0954-10.026 10.019-0.88941 0.16867-8.2396 0.26178-19.578 0.24802-14.718-0.0179-18.448-0.0931-19.706-0.39771zm67.733-50.8c-4.6675-1.1298-8.533-5.1788-9.4227-9.8701-0.35001-1.8456-0.35001-11.441 0-13.287 0.65462-3.4518 3.2714-7.0431 6.3134-8.6644 3.0201-1.6097 3.1266-1.6172 22.948-1.6215 11.169-0.0024 18.563 0.09878 19.446 0.26615 3.6822 0.69832 7.2023 3.3747 8.8453 6.7254 1.2501 2.5494 1.4446 3.8871 1.4446 9.9379 0 6.0508-0.19444 7.3885-1.4446 9.9379-1.643 3.3506-5.163 6.027-8.8453 6.7254-0.88941 0.16868-8.2396 0.26179-19.578 0.24802-14.718-0.0179-18.448-0.0931-19.706-0.39771z" fill="#737373" fill-opacity=".5" stroke-width=".26458"/>
 </g>
</svg>
